HIERARCHY
ROOT SpineBase
{
  OFFSET 0.000000 0.000000 0.000000
  CHANNELS 6 Xposition Yposition Zposition Zrotation Xrotation Yrotation
  JOINT SpineMid
  {
    OFFSET 0.000000 32.853641 0.000000
    CHANNELS 3 Zrotation Xrotation Yrotation
    JOINT SpineShoulder
    {
      OFFSET -0.091722 24.429912 -0.738235
      CHANNELS 3 Zrotation Xrotation Yrotation
      JOINT Neck
      {
        OFFSET -0.081968 8.092555 -0.589185
        CHANNELS 3 Zrotation Xrotation Yrotation
        JOINT Head
        {
          OFFSET -6.469183 11.106071 4.362024
          CHANNELS 3 Zrotation Xrotation Yrotation
          End Site
          {
            OFFSET 0 0 0
          }
        }
      }
      JOINT ShoulderLeft
      {
        OFFSET -3.099537 -1.609339 -18.284984
        CHANNELS 3 Zrotation Xrotation Yrotation
        JOINT ElbowLeft
        {
          OFFSET 11.265672 -22.905904 -1.586557
          CHANNELS 3 Zrotation Xrotation Yrotation
          JOINT WristLeft
          {
            OFFSET -14.271782 -21.153128 0.531505
            CHANNELS 3 Zrotation Xrotation Yrotation
            JOINT HandLeft
            {
              OFFSET 0.029181 -3.715485 7.918120
              CHANNELS 3 Zrotation Xrotation Yrotation
              JOINT HandTipLeft
              {
                OFFSET -0.047182 -0.093443 -1.178857
                CHANNELS 3 Zrotation Xrotation Yrotation
                End Site
                {
                  OFFSET 0 0 0
                }
              }
              JOINT ThumbLeft
              {
                OFFSET -0.186411 1.524897 -2.489048
                CHANNELS 3 Zrotation Xrotation Yrotation
                End Site
                {
                  OFFSET 0 0 0
                }
              }
            }
          }
        }
      }
      JOINT ShoulderRight
      {
        OFFSET 4.644175 -2.388560 -13.697810
        CHANNELS 3 Zrotation Xrotation Yrotation
        JOINT ElbowRight
        {
          OFFSET 5.893220 -23.210739 -6.136433
          CHANNELS 3 Zrotation Xrotation Yrotation
          JOINT WristRight
          {
            OFFSET -3.159523 -25.217343 -1.554879
            CHANNELS 3 Zrotation Xrotation Yrotation
            JOINT HandRight
            {
              OFFSET -2.008938 -7.917270 0.795161
              CHANNELS 3 Zrotation Xrotation Yrotation
              JOINT HandTipRight
              {
                OFFSET -3.598028 -7.057303 -0.458607
                CHANNELS 3 Zrotation Xrotation Yrotation
                End Site
                {
                  OFFSET 0 0 0
                }
              }
              JOINT ThumbRight
              {
                OFFSET -1.752758 4.210901 0.658180
                CHANNELS 3 Zrotation Xrotation Yrotation
                End Site
                {
                  OFFSET 0 0 0
                }
              }
            }
          }
        }
      }
    }
  }
  JOINT HipLeft
  {
    OFFSET -7.046796 1.567730 2.283289
    CHANNELS 3 Zrotation Xrotation Yrotation
    JOINT KneeLeft
    {
      OFFSET 15.706145 -43.681435 -6.783353
      CHANNELS 3 Zrotation Xrotation Yrotation
      JOINT AnkleLeft
      {
        OFFSET 4.614831 -27.209588 12.453407
        CHANNELS 3 Zrotation Xrotation Yrotation
        JOINT FootLeft
        {
          OFFSET 7.788255 0.130160 -11.853137
          CHANNELS 3 Zrotation Xrotation Yrotation
          End Site
          {
            OFFSET 0 0 0
          }
        }
      }
    }
  }
  JOINT HipRight
  {
    OFFSET 6.578062 1.079180 -9.684280
    CHANNELS 3 Zrotation Xrotation Yrotation
    JOINT KneeRight
    {
      OFFSET 5.259204 -30.774252 0.824175
      CHANNELS 3 Zrotation Xrotation Yrotation
      JOINT AnkleRight
      {
        OFFSET 8.040306 -33.074993 5.066719
        CHANNELS 3 Zrotation Xrotation Yrotation
        JOINT FootRight
        {
          OFFSET 5.456923 -2.668370 -11.732856
          CHANNELS 3 Zrotation Xrotation Yrotation
          End Site
          {
            OFFSET 0 0 0
          }
        }
      }
    }
  }
}
MOTION
Frames: 14
Frame Time: 0.033333
5.184593 72.970111 292.380584 5.210493 -2.565764 23.786367 -0.272829 -0.666637 -23.493336 -0.293902 -0.389377 0.200823 -9.280996 4.019688 2.066866 0.000000 0.000000 0.000000 -63.484167 7.889795 17.420717 7.124197 19.216355 -18.876509 28.856343 18.961192 -78.109597 26.333865 5.967323 169.152927 0.000000 0.000000 0.000000 0.000000 0.000000 0.000000 -73.974808 18.976113 44.045094 5.409361 8.039731 -22.929775 2.716526 5.921389 -12.113352 -7.990203 -11.490790 -2.011176 0.000000 0.000000 0.000000 0.000000 0.000000 0.000000 -11.911883 11.739258 -19.404555 38.416234 -16.936891 12.603813 -31.782548 9.732700 -5.170203 0.000000 0.000000 0.000000 -6.659160 -30.769538 -29.643094 -78.279316 47.339754 56.728861 -63.410480 -78.935140 -71.347676 0.000000 0.000000 0.000000
4.328083 72.688981 291.645196 5.441997 -2.722389 22.537837 -0.378270 -0.456546 -22.232232 -0.380949 -0.308671 0.195799 -10.235512 3.909914 2.521000 0.000000 0.000000 0.000000 -86.040478 6.500204 27.996081 35.554622 5.279851 -22.726460 26.888235 25.884782 -72.842220 34.434203 -0.745579 162.912833 0.000000 0.000000 0.000000 0.000000 0.000000 0.000000 -74.766430 18.753235 44.519115 8.372847 4.515234 -23.463267 3.597204 4.926231 -11.374599 -5.677056 -17.940812 -1.483335 0.000000 0.000000 0.000000 0.000000 0.000000 0.000000 -12.450754 10.389133 -18.706797 39.344824 -16.991972 13.110907 -34.726111 9.405925 -6.860943 0.000000 0.000000 0.000000 -5.786251 -31.179236 -28.156456 -74.562249 47.733083 53.764676 -11.298068 -72.538781 -24.476781 0.000000 0.000000 0.000000
3.454842 72.563279 291.018438 5.332055 -2.660606 22.705448 -0.475290 -0.122701 -22.421134 -0.441022 -0.206061 0.176191 -10.351464 3.089822 2.466631 0.000000 0.000000 0.000000 -88.425756 5.728537 28.216289 45.084612 -1.497314 -20.258953 17.448436 22.760298 -76.560168 37.711735 9.426897 156.220525 0.000000 0.000000 0.000000 0.000000 0.000000 0.000000 -73.245432 18.649100 43.302303 7.242131 5.375743 -23.149884 4.948409 4.830296 -10.962975 -1.237535 -19.521439 0.099245 0.000000 0.000000 0.000000 0.000000 0.000000 0.000000 -11.774126 9.576013 -19.342217 38.804390 -16.581922 13.196832 -34.886874 9.609970 -6.167227 0.000000 0.000000 0.000000 -5.568580 -31.350309 -28.300977 -71.256849 48.180973 51.251521 17.030995 -53.596690 -6.474036 0.000000 0.000000 0.000000
2.657550 72.384187 290.517962 5.252015 -2.652612 21.816459 -0.353323 -0.294681 -21.531613 -0.458074 -0.167621 0.178061 -11.009335 3.041707 2.678596 0.000000 0.000000 0.000000 -94.267766 5.098297 31.958098 50.930449 -4.341090 -20.841824 15.535802 20.004967 -79.091357 36.027654 14.229802 149.476619 0.000000 0.000000 0.000000 0.000000 0.000000 0.000000 -71.165909 18.064244 41.126848 5.455633 8.131991 -21.700397 3.776145 2.701865 -12.060831 2.840775 -15.304870 2.249765 0.000000 0.000000 0.000000 0.000000 0.000000 0.000000 -11.424094 8.781744 -18.803692 38.444627 -16.274679 13.286848 -35.050042 9.797336 -5.686985 0.000000 0.000000 0.000000 -4.630926 -31.691264 -27.198060 -69.826767 48.410569 50.099082 24.811583 -41.925002 -4.909491 0.000000 0.000000 0.000000
1.944072 72.131366 290.128978 5.108120 -2.574498 21.913707 -0.320296 -0.337742 -21.638911 -0.391433 -0.223366 0.178789 -11.055752 3.075608 2.735823 0.000000 0.000000 0.000000 -97.982897 5.177896 36.327790 53.126858 -5.898670 -22.680896 14.809202 16.196768 -82.637457 27.214687 15.795727 149.459411 0.000000 0.000000 0.000000 0.000000 0.000000 0.000000 -67.854017 17.253034 37.972570 0.351332 12.263198 -19.743851 -0.322517 2.700573 -14.174174 7.321414 -7.566752 4.656035 0.000000 0.000000 0.000000 0.000000 0.000000 0.000000 -10.968169 8.438192 -19.089343 38.494501 -16.430568 13.560172 -35.378528 10.159466 -5.115688 0.000000 0.000000 0.000000 -4.213077 -32.303405 -27.281110 -71.843405 48.792287 51.824687 30.153780 -35.225237 -4.183472 0.000000 0.000000 0.000000
1.395089 71.874399 289.925576 4.973823 -2.523843 21.882390 -0.301772 -0.358125 -21.616589 -0.387932 -0.225680 0.174278 -10.785988 3.076211 2.681108 0.000000 0.000000 0.000000 -99.249771 6.687772 42.390551 51.364681 -6.687136 -26.701151 14.796315 10.958397 -88.444845 17.911705 19.088333 154.336535 0.000000 0.000000 0.000000 0.000000 0.000000 0.000000 -64.446346 17.178082 35.505885 -6.181170 16.610958 -17.656482 -7.685303 -0.809638 -19.580885 13.915116 9.882598 9.985374 0.000000 0.000000 0.000000 0.000000 0.000000 0.000000 -10.496267 8.340566 -19.130475 38.634574 -16.790722 13.911107 -35.711789 10.423578 -4.071216 0.000000 0.000000 0.000000 -3.988352 -32.725361 -27.273869 -72.479517 49.016874 52.470212 32.473108 -31.314247 -3.869381 0.000000 0.000000 0.000000
0.836174 71.669299 289.728580 4.862882 -2.572864 21.877486 -0.297090 -0.340583 -21.616614 -0.388821 -0.218708 0.168915 -10.023457 3.632836 2.724059 0.000000 0.000000 0.000000 -97.294831 10.690072 50.469206 44.116944 -7.070800 -34.015575 16.593895 3.596429 -90.237082 8.661322 21.928530 155.358844 0.000000 0.000000 0.000000 0.000000 0.000000 0.000000 -62.074794 17.669021 34.301989 -11.209688 21.109592 -15.492714 -12.115473 1.761973 -22.252678 23.376723 14.394287 13.081536 0.000000 0.000000 0.000000 0.000000 0.000000 0.000000 -10.017976 8.307846 -19.194012 38.850451 -17.164046 14.303264 -36.152441 10.815343 -3.576520 0.000000 0.000000 0.000000 -3.303657 -33.654838 -27.222209 -72.203237 48.690223 51.741948 32.102207 -29.446307 -4.102144 0.000000 0.000000 0.000000
0.402191 71.414854 289.578956 4.768690 -2.594012 22.295380 -0.311465 -0.327115 -22.039344 -0.394118 -0.213937 0.163626 -9.047123 4.303094 2.735620 0.000000 0.000000 0.000000 -100.186511 13.268177 61.824783 43.814033 -12.096197 -40.333713 16.385086 -2.959286 -92.236697 -0.489298 21.796795 156.505870 0.000000 0.000000 0.000000 0.000000 0.000000 0.000000 -60.588648 18.698831 34.110070 -15.193814 25.556274 -13.617101 -13.707352 7.812926 -22.094350 32.345335 13.511664 15.670099 0.000000 0.000000 0.000000 0.000000 0.000000 0.000000 -9.348188 8.390810 -19.671903 38.838316 -17.584103 14.674295 -36.488540 11.109276 -3.052268 0.000000 0.000000 0.000000 -4.248081 -33.449810 -27.967419 -73.601098 49.302268 53.762792 30.607491 -33.873822 -3.019030 0.000000 0.000000 0.000000
0.120446 71.236963 289.513675 4.699770 -2.604048 22.311940 -0.316474 -0.316955 -22.059741 -0.392904 -0.208565 0.160112 -7.988320 5.098060 2.759857 0.000000 0.000000 0.000000 -103.476079 14.759795 72.023196 44.678234 -17.446206 -45.035144 15.763303 -8.649759 -93.481039 -6.938075 22.073352 156.341920 0.000000 0.000000 0.000000 0.000000 0.000000 0.000000 -60.142786 20.491298 35.135199 -17.019900 28.175462 -13.419540 -8.924491 7.078110 -21.413782 29.785853 10.835726 14.739487 0.000000 0.000000 0.000000 0.000000 0.000000 0.000000 -8.765628 8.381863 -19.758242 38.710595 -17.903528 14.974017 -36.734971 11.313047 -2.624111 0.000000 0.000000 0.000000 -4.317330 -34.079981 -28.137242 -71.418269 49.338634 52.078797 28.961399 -32.341509 -3.400316 0.000000 0.000000 0.000000
-0.235246 70.943566 289.418803 4.536918 -2.569759 22.121817 -0.317344 -0.296428 -21.880823 -0.367251 -0.207947 0.153865 -6.898125 5.478685 2.569778 0.000000 0.000000 0.000000 -107.050171 14.407353 79.543872 46.818991 -23.470439 -46.826882 13.870433 -12.059558 -95.829023 -10.883362 23.396307 156.977487 0.000000 0.000000 0.000000 0.000000 0.000000 0.000000 -60.250509 22.350183 36.618713 -15.048467 29.102303 -14.438844 -12.115347 8.177751 -23.636894 34.377660 9.065894 16.128376 0.000000 0.000000 0.000000 0.000000 0.000000 0.000000 -7.641931 8.405961 -19.655822 37.538860 -18.026272 14.990660 -36.478346 10.913765 -2.705122 0.000000 0.000000 0.000000 -4.506310 -35.097081 -28.239887 -69.862044 49.591022 51.257106 27.491653 -31.061204 -3.961873 0.000000 0.000000 0.000000
-0.514211 70.802893 289.343234 4.381186 -2.504988 21.159394 -0.318966 -0.300813 -20.929489 -0.334521 -0.215798 0.148690 -6.060048 5.926608 2.530004 0.000000 0.000000 0.000000 -109.772549 12.026256 80.552155 50.733043 -26.330973 -44.556074 16.888715 -6.076884 -91.444194 -2.444429 20.496308 152.638227 0.000000 0.000000 0.000000 0.000000 0.000000 0.000000 -60.295405 22.591220 36.902855 -15.078215 27.767998 -15.354066 -16.387886 7.045288 -26.368669 35.086590 14.925768 17.428902 0.000000 0.000000 0.000000 0.000000 0.000000 0.000000 -7.430690 7.783605 -18.908720 37.567379 -17.785009 15.169167 -36.751965 10.971207 -1.555874 0.000000 0.000000 0.000000 -4.000903 -36.226142 -27.345686 -67.960806 49.740721 49.996601 25.636842 -29.448029 -3.591820 0.000000 0.000000 0.000000
-0.698860 70.614904 289.324733 4.231672 -2.463839 18.829114 -0.256752 -0.344990 -18.607924 -0.313059 -0.208984 0.145608 -5.636718 6.338640 2.623947 0.000000 0.000000 0.000000 -111.924867 8.728718 76.841585 57.088596 -28.349078 -38.288180 20.597361 7.580333 -83.312481 15.524757 13.294566 145.747449 0.000000 0.000000 0.000000 0.000000 0.000000 0.000000 -60.874990 22.057281 36.989964 -15.150434 24.128709 -16.992694 -14.826045 1.919376 -26.308220 29.199170 20.184694 16.156866 0.000000 0.000000 0.000000 0.000000 0.000000 0.000000 -8.184840 6.306346 -16.994290 39.228905 -17.573459 15.727469 -37.921237 12.201540 0.204329 0.000000 0.000000 0.000000 -2.364979 -37.445353 -24.700877 -66.103761 49.847016 48.727608 23.798171 -27.776045 -2.998368 0.000000 0.000000 0.000000
-0.939507 70.561677 289.283960 3.982139 -2.382085 16.690605 -0.152807 -0.431023 -16.483144 -0.268093 -0.209565 0.141777 -5.873806 6.757358 3.055199 0.000000 0.000000 0.000000 -108.503767 8.221138 65.903089 55.755286 -21.079362 -35.155062 21.157366 10.180786 -79.603430 21.047634 12.888667 145.306845 0.000000 0.000000 0.000000 0.000000 0.000000 0.000000 -61.443103 21.073287 36.758712 -15.010623 19.838821 -18.648522 -14.240222 -1.225711 -25.495057 23.372398 22.568387 15.608992 0.000000 0.000000 0.000000 0.000000 0.000000 0.000000 -8.407976 5.102969 -15.199558 40.233412 -17.625550 16.136261 -38.682642 13.101527 2.034981 0.000000 0.000000 0.000000 -0.239818 -39.005164 -22.105317 -64.643698 49.829299 47.527555 23.697598 -22.830785 -2.469845 0.000000 0.000000 0.000000
-1.176888 70.477299 289.229797 3.712717 -2.289035 15.042805 -0.029353 -0.490815 -14.850432 -0.275396 -0.186969 0.134692 -6.727819 6.990365 3.746204 0.000000 0.000000 0.000000 -106.960314 6.209658 55.672725 57.282036 -16.677784 -30.053936 23.040348 18.938033 -73.515124 31.965523 6.419923 145.072421 0.000000 0.000000 0.000000 0.000000 0.000000 0.000000 -61.725150 19.572880 35.955998 -14.495099 15.472537 -19.920455 -13.175973 -5.083782 -24.673022 15.432528 25.160054 15.898488 0.000000 0.000000 0.000000 0.000000 0.000000 0.000000 -8.399202 4.276224 -13.774974 40.815711 -17.878153 16.402836 -39.096407 13.756233 3.508581 0.000000 0.000000 0.000000 0.421885 -38.737129 -20.294943 -65.535081 50.368250 48.963077 21.790936 -27.905983 -1.044132 0.000000 0.000000 0.000000
